<svg id="svg" version="1.1" xmlns="http://www.w3.org/2000/svg" xmlns:xlink="http://www.w3.org/1999/xlink" width="400" height="320" viewBox="0, 0, 400,320"><g id="svgg"><path id="path0" d="M170.208 113.359 C 167.339 123.801,164.993 132.449,164.995 132.578 C 164.998 132.707,167.297 132.813,170.105 132.813 L 175.210 132.813 179.099 118.672 L 182.989 104.531 202.016 104.451 C 223.529 104.360,222.874 104.290,224.436 106.818 C 226.338 109.894,223.707 119.037,219.796 122.949 C 216.220 126.525,213.200 127.491,205.585 127.496 L 200.076 127.500 199.199 130.703 C 198.716 132.465,196.965 138.828,195.307 144.844 L 192.293 155.781 197.150 155.868 C 199.821 155.915,202.156 155.896,202.340 155.826 C 202.523 155.756,203.788 151.623,205.151 146.642 L 207.628 137.586 210.534 137.395 C 223.726 136.528,232.857 126.986,235.008 111.818 C 235.907 105.479,232.547 98.813,227.123 96.174 C 223.368 94.347,223.808 94.375,198.585 94.375 L 175.426 94.375 170.208 113.359 M185.968 117.734 C 184.893 121.645,182.127 131.692,179.820 140.062 C 177.513 148.432,175.625 155.428,175.625 155.609 C 175.625 155.825,177.335 155.938,180.612 155.938 L 185.600 155.938 185.946 154.766 C 186.136 154.121,188.301 146.281,190.757 137.344 L 195.223 121.094 203.627 120.938 C 213.070 120.762,212.986 120.781,215.480 118.286 C 216.795 116.971,217.647 114.970,218.317 111.618 L 218.516 110.625 203.219 110.625 L 187.922 110.625 185.968 117.734 " stroke="none" fill="#33f2f3" fill-rule="evenodd"></path><path id="path1" d="M164.940 71.574 C 155.832 73.813,148.467 81.216,146.342 90.267 C 145.480 93.941,145.480 156.371,146.342 160.046 C 148.144 167.718,154.146 174.715,161.428 177.630 C 165.587 179.295,166.582 179.375,183.222 179.375 L 198.591 179.375 186.918 167.699 L 175.246 156.024 176.607 151.114 L 177.969 146.205 171.301 139.565 L 164.632 132.925 169.527 115.134 C 172.219 105.350,174.632 96.605,174.889 95.703 L 175.357 94.063 198.069 94.068 C 222.994 94.074,223.229 94.089,226.990 95.940 C 229.496 97.174,233.444 100.864,233.172 101.719 C 233.118 101.891,233.184 101.920,233.319 101.785 C 233.455 101.649,238.254 106.219,243.984 111.941 L 254.402 122.344 254.296 107.188 C 254.194 92.774,254.156 91.912,253.512 89.602 C 251.014 80.645,243.859 73.703,234.914 71.558 C 231.011 70.622,168.753 70.636,164.940 71.574 M195.569 110.547 C 199.920 110.596,206.952 110.596,211.194 110.547 C 215.436 110.497,211.875 110.457,203.281 110.457 C 194.688 110.457,191.217 110.498,195.569 110.547 M226.875 130.156 C 226.116 130.930,225.565 131.563,225.651 131.563 C 225.737 131.563,226.428 130.930,227.188 130.156 C 227.947 129.383,228.497 128.750,228.411 128.750 C 228.325 128.750,227.634 129.383,226.875 130.156 " stroke="none" fill="#1c538b" fill-rule="evenodd"></path><path id="path2" d="M233.569 102.199 C 237.822 109.885,233.534 125.140,225.227 131.874 C 220.932 135.355,215.287 137.500,210.419 137.500 C 208.985 137.500,207.813 137.571,207.813 137.657 C 207.813 137.916,202.780 156.074,202.681 156.173 C 202.630 156.224,200.203 156.227,197.287 156.179 L 191.985 156.094 195.940 141.719 L 199.895 127.344 206.276 127.175 C 214.643 126.954,217.687 125.749,220.975 121.355 C 223.958 117.369,225.755 109.622,224.292 107.059 C 222.801 104.449,223.598 104.543,202.176 104.442 L 183.258 104.352 179.329 118.661 L 175.399 132.969 170.196 133.125 L 164.992 133.281 171.391 139.673 C 174.910 143.189,177.848 146.001,177.919 145.923 C 177.990 145.845,179.974 138.750,182.328 130.156 C 184.681 121.563,186.884 113.582,187.223 112.422 L 187.839 110.313 203.294 110.313 C 215.007 110.313,218.750 110.402,218.750 110.683 C 218.750 113.074,216.541 117.903,214.861 119.184 C 212.276 121.156,211.828 121.236,203.251 121.243 L 195.408 121.250 193.795 127.109 C 192.908 130.332,190.742 138.207,188.983 144.609 L 185.784 156.250 180.628 156.250 L 175.472 156.250 187.033 167.821 L 198.594 179.392 216.250 179.305 L 233.906 179.218 236.563 178.325 C 239.299 177.406,242.775 175.642,243.446 174.833 C 243.655 174.581,243.998 174.375,244.207 174.375 C 245.308 174.375,250.417 168.043,251.898 164.843 C 254.184 159.904,254.181 159.939,254.296 140.156 L 254.399 122.344 243.592 111.563 C 235.543 103.532,232.985 101.143,233.569 102.199 M143.750 206.719 L 143.750 217.813 146.094 217.813 L 148.438 217.813 148.438 214.420 L 148.438 211.027 151.659 210.863 C 157.624 210.558,159.692 208.523,159.679 202.969 C 159.666 197.248,157.178 195.625,148.422 195.625 L 143.750 195.625 143.750 206.719 M167.188 197.656 L 167.188 199.688 170.156 199.688 L 173.125 199.688 173.125 208.750 L 173.125 217.813 175.469 217.813 L 177.813 217.813 177.813 208.750 L 177.813 199.688 180.625 199.688 L 183.438 199.688 183.438 197.656 L 183.438 195.625 175.313 195.625 L 167.188 195.625 167.188 197.656 M192.561 205.103 C 192.681 217.135,192.790 217.344,199.139 217.722 C 206.841 218.182,209.210 215.590,209.194 206.719 C 209.178 197.390,207.679 195.909,198.030 195.690 L 192.466 195.564 192.561 205.103 M222.464 196.039 C 217.772 197.788,215.750 206.238,218.286 213.501 C 220.281 219.218,230.916 219.617,233.740 214.082 C 235.677 210.285,235.369 201.754,233.181 198.594 C 231.412 196.038,225.956 194.737,222.464 196.039 M248.008 196.084 C 241.546 198.387,241.054 214.192,247.353 217.076 C 253.155 219.732,258.864 216.801,259.569 210.804 L 259.774 209.063 257.543 209.063 C 255.365 209.063,255.313 209.081,255.313 209.854 C 255.313 214.981,248.710 215.246,247.773 210.156 C 247.341 207.809,247.630 202.821,248.271 201.582 C 249.710 198.799,254.185 199.061,254.937 201.973 C 255.193 202.964,255.204 202.969,257.447 203.061 L 259.699 203.153 259.493 201.811 C 258.738 196.891,253.321 194.190,248.008 196.084 M154.281 200.701 C 155.008 201.428,155.134 201.814,155.134 203.314 C 155.134 205.908,154.285 206.563,150.920 206.563 L 148.438 206.563 148.438 203.092 L 148.438 199.621 150.932 199.735 C 153.155 199.836,153.520 199.941,154.281 200.701 M203.060 200.525 C 204.289 201.436,204.652 202.849,204.652 206.719 C 204.652 212.255,203.777 213.598,200.174 213.588 C 197.093 213.580,197.188 213.814,197.188 206.172 L 197.188 199.607 199.701 199.753 C 201.563 199.861,202.434 200.061,203.060 200.525 M228.717 200.489 C 229.958 201.533,230.309 202.907,230.309 206.719 C 230.309 212.726,227.903 215.289,224.080 213.354 C 221.222 211.908,221.072 201.990,223.881 200.277 C 225.331 199.393,227.529 199.489,228.717 200.489 " stroke="none" fill="#142c74" fill-rule="evenodd"></path><path id="path3" d="M202.578 127.420 C 204.082 127.477,206.543 127.477,208.047 127.420 C 209.551 127.363,208.320 127.316,205.313 127.316 C 202.305 127.316,201.074 127.363,202.578 127.420 " stroke="none" fill="#2490b2" fill-rule="evenodd"></path><path id="path4" d="M186.484 94.297 C 192.715 94.344,202.910 94.344,209.141 94.297 C 215.371 94.249,210.273 94.211,197.813 94.211 C 185.352 94.211,180.254 94.249,186.484 94.297 M225.073 109.688 C 225.073 110.289,225.137 110.535,225.215 110.234 C 225.294 109.934,225.294 109.441,225.215 109.141 C 225.137 108.840,225.073 109.086,225.073 109.688 M195.204 121.172 C 195.124 121.301,197.401 121.370,200.264 121.326 C 209.874 121.178,210.836 121.066,203.065 121.002 C 198.822 120.966,195.284 121.043,195.204 121.172 M164.961 132.899 C 165.094 133.032,167.443 133.102,170.180 133.054 L 175.156 132.967 169.937 132.812 C 167.066 132.726,164.827 132.765,164.961 132.899 M175.312 156.016 C 175.312 156.145,177.668 156.223,180.547 156.191 C 185.850 156.131,185.227 156.012,178.827 155.863 C 176.894 155.818,175.312 155.887,175.312 156.016 M197.344 155.938 L 192.031 156.117 197.247 156.183 C 200.461 156.224,202.537 156.130,202.656 155.938 C 202.762 155.766,202.806 155.655,202.753 155.692 C 202.700 155.728,200.266 155.839,197.344 155.938 " stroke="none" fill="#2ca4c4" fill-rule="evenodd"></path></g></svg>